<svg width="347" height="360" viewBox="0 0 347 360" fill="none" xmlns="http://www.w3.org/2000/svg">
<g filter="url(#filter0_d_140_3)">
<rect x="30" y="26" width="287" height="300" rx="15" fill="#EAC7AC"/>
</g>
<g filter="url(#filter1_d_140_3)">
<circle cx="107.5" cy="258.5" r="3.5" fill="white"/>
</g>
<g filter="url(#filter2_d_140_3)">
<circle cx="98.5" cy="258.5" r="3.5" fill="white"/>
</g>
<g filter="url(#filter3_d_140_3)">
<circle cx="71.5" cy="258.5" r="3.5" fill="white"/>
</g>
<g filter="url(#filter4_d_140_3)">
<circle cx="89.5" cy="258.5" r="3.5" fill="white"/>
</g>
<g filter="url(#filter5_d_140_3)">
<circle cx="80.5" cy="258.5" r="3.5" fill="#25233D"/>
</g>
<path d="M83.6667 90C77.2337 90 72 95.2337 72 101.667V120.333C72 126.766 77.2337 132 83.6667 132H102.333C108.766 132 114 126.766 114 120.333V101.667C114 95.2337 108.766 90 102.333 90H83.6667ZM83.6667 94.6667H102.333C106.193 94.6667 109.333 97.8073 109.333 101.667V120.333C109.333 124.193 106.193 127.333 102.333 127.333H83.6667C79.8073 127.333 76.6667 124.193 76.6667 120.333V101.667C76.6667 97.8073 79.8073 94.6667 83.6667 94.6667ZM104.667 97C104.048 97 103.454 97.2458 103.017 97.6834C102.579 98.121 102.333 98.7145 102.333 99.3333C102.333 99.9522 102.579 100.546 103.017 100.983C103.454 101.421 104.048 101.667 104.667 101.667C105.286 101.667 105.879 101.421 106.317 100.983C106.754 100.546 107 99.9522 107 99.3333C107 98.7145 106.754 98.121 106.317 97.6834C105.879 97.2458 105.286 97 104.667 97ZM93 99.3333C86.567 99.3333 81.3333 104.567 81.3333 111C81.3333 117.433 86.567 122.667 93 122.667C99.433 122.667 104.667 117.433 104.667 111C104.667 104.567 99.433 99.3333 93 99.3333ZM93 104C96.8593 104 100 107.141 100 111C100 114.859 96.8593 118 93 118C89.1407 118 86 114.859 86 111C86 107.141 89.1407 104 93 104Z" fill="#BD6F33"/>
<path d="M75.616 162.832V170.672C75.616 171.76 75.3013 172.608 74.672 173.216C74.0427 173.813 73.2 174.112 72.144 174.112C71.0773 174.112 70.2133 173.803 69.552 173.184C68.9013 172.565 68.576 171.701 68.576 170.592H70.816C70.8267 171.072 70.9387 171.445 71.152 171.712C71.376 171.979 71.696 172.112 72.112 172.112C72.5173 172.112 72.8267 171.984 73.04 171.728C73.2533 171.472 73.36 171.12 73.36 170.672V162.832H75.616ZM82.165 174.144C81.3117 174.144 80.5437 173.957 79.861 173.584C79.1783 173.2 78.6397 172.661 78.245 171.968C77.861 171.275 77.669 170.475 77.669 169.568C77.669 168.661 77.8663 167.861 78.261 167.168C78.6663 166.475 79.2157 165.941 79.909 165.568C80.6023 165.184 81.3757 164.992 82.229 164.992C83.0823 164.992 83.8557 165.184 84.549 165.568C85.2423 165.941 85.7863 166.475 86.181 167.168C86.5863 167.861 86.789 168.661 86.789 169.568C86.789 170.475 86.581 171.275 86.165 171.968C85.7597 172.661 85.205 173.2 84.501 173.584C83.8077 173.957 83.029 174.144 82.165 174.144ZM82.165 172.192C82.5703 172.192 82.949 172.096 83.301 171.904C83.6637 171.701 83.9517 171.403 84.165 171.008C84.3783 170.613 84.485 170.133 84.485 169.568C84.485 168.725 84.261 168.08 83.813 167.632C83.3757 167.173 82.837 166.944 82.197 166.944C81.557 166.944 81.0183 167.173 80.581 167.632C80.1543 168.08 79.941 168.725 79.941 169.568C79.941 170.411 80.149 171.061 80.565 171.52C80.9917 171.968 81.525 172.192 82.165 172.192ZM89.5681 164.08C89.1735 164.08 88.8428 163.957 88.5761 163.712C88.3201 163.456 88.1921 163.141 88.1921 162.768C88.1921 162.395 88.3201 162.085 88.5761 161.84C88.8428 161.584 89.1735 161.456 89.5681 161.456C89.9628 161.456 90.2881 161.584 90.5441 161.84C90.8108 162.085 90.9441 162.395 90.9441 162.768C90.9441 163.141 90.8108 163.456 90.5441 163.712C90.2881 163.957 89.9628 164.08 89.5681 164.08ZM90.6721 165.136V174H88.4321V165.136H90.6721ZM97.7973 165.008C98.8533 165.008 99.7066 165.344 100.357 166.016C101.008 166.677 101.333 167.605 101.333 168.8V174H99.0933V169.104C99.0933 168.4 98.9173 167.861 98.5653 167.488C98.2133 167.104 97.7333 166.912 97.1253 166.912C96.5066 166.912 96.0159 167.104 95.6533 167.488C95.3013 167.861 95.1253 168.4 95.1253 169.104V174H92.8853V165.136H95.1253V166.24C95.4239 165.856 95.8026 165.557 96.2613 165.344C96.7306 165.12 97.2426 165.008 97.7973 165.008ZM112.46 174.112C111.415 174.112 110.455 173.867 109.58 173.376C108.705 172.885 108.012 172.208 107.5 171.344C106.988 170.469 106.732 169.483 106.732 168.384C106.732 167.296 106.988 166.32 107.5 165.456C108.012 164.581 108.705 163.899 109.58 163.408C110.455 162.917 111.415 162.672 112.46 162.672C113.516 162.672 114.476 162.917 115.34 163.408C116.215 163.899 116.903 164.581 117.404 165.456C117.916 166.32 118.172 167.296 118.172 168.384C118.172 169.483 117.916 170.469 117.404 171.344C116.903 172.208 116.215 172.885 115.34 173.376C114.465 173.867 113.505 174.112 112.46 174.112ZM112.46 172.112C113.132 172.112 113.724 171.963 114.236 171.664C114.748 171.355 115.148 170.917 115.436 170.352C115.724 169.787 115.868 169.131 115.868 168.384C115.868 167.637 115.724 166.987 115.436 166.432C115.148 165.867 114.748 165.435 114.236 165.136C113.724 164.837 113.132 164.688 112.46 164.688C111.788 164.688 111.191 164.837 110.668 165.136C110.156 165.435 109.756 165.867 109.468 166.432C109.18 166.987 109.036 167.637 109.036 168.384C109.036 169.131 109.18 169.787 109.468 170.352C109.756 170.917 110.156 171.355 110.668 171.664C111.191 171.963 111.788 172.112 112.46 172.112ZM128.206 165.136V174H125.95V172.88C125.662 173.264 125.284 173.568 124.814 173.792C124.356 174.005 123.854 174.112 123.31 174.112C122.617 174.112 122.004 173.968 121.47 173.68C120.937 173.381 120.516 172.949 120.206 172.384C119.908 171.808 119.758 171.125 119.758 170.336V165.136H121.998V170.016C121.998 170.72 122.174 171.264 122.526 171.648C122.878 172.021 123.358 172.208 123.966 172.208C124.585 172.208 125.07 172.021 125.422 171.648C125.774 171.264 125.95 170.72 125.95 170.016V165.136H128.206ZM132.657 166.512C132.945 166.043 133.318 165.675 133.777 165.408C134.246 165.141 134.779 165.008 135.377 165.008V167.36H134.785C134.081 167.36 133.547 167.525 133.185 167.856C132.833 168.187 132.657 168.763 132.657 169.584V174H130.417V165.136H132.657V166.512ZM142.938 162.832V174H140.698V162.832H142.938ZM150.063 165.008C151.119 165.008 151.972 165.344 152.623 166.016C153.274 166.677 153.599 167.605 153.599 168.8V174H151.359V169.104C151.359 168.4 151.183 167.861 150.831 167.488C150.479 167.104 149.999 166.912 149.391 166.912C148.772 166.912 148.282 167.104 147.919 167.488C147.567 167.861 147.391 168.4 147.391 169.104V174H145.151V165.136H147.391V166.24C147.69 165.856 148.068 165.557 148.527 165.344C148.996 165.12 149.508 165.008 150.063 165.008ZM159.121 174.144C158.396 174.144 157.745 174.016 157.169 173.76C156.593 173.493 156.134 173.136 155.793 172.688C155.462 172.24 155.281 171.744 155.249 171.2H157.505C157.548 171.541 157.713 171.824 158.001 172.048C158.3 172.272 158.668 172.384 159.105 172.384C159.532 172.384 159.862 172.299 160.097 172.128C160.342 171.957 160.465 171.739 160.465 171.472C160.465 171.184 160.316 170.971 160.017 170.832C159.729 170.683 159.265 170.523 158.625 170.352C157.964 170.192 157.42 170.027 156.993 169.856C156.577 169.685 156.214 169.424 155.905 169.072C155.606 168.72 155.457 168.245 155.457 167.648C155.457 167.157 155.596 166.709 155.873 166.304C156.161 165.899 156.566 165.579 157.089 165.344C157.622 165.109 158.246 164.992 158.961 164.992C160.017 164.992 160.86 165.259 161.489 165.792C162.118 166.315 162.465 167.024 162.529 167.92H160.385C160.353 167.568 160.204 167.291 159.937 167.088C159.681 166.875 159.334 166.768 158.897 166.768C158.492 166.768 158.177 166.843 157.953 166.992C157.74 167.141 157.633 167.349 157.633 167.616C157.633 167.915 157.782 168.144 158.081 168.304C158.38 168.453 158.844 168.608 159.473 168.768C160.113 168.928 160.641 169.093 161.057 169.264C161.473 169.435 161.83 169.701 162.129 170.064C162.438 170.416 162.598 170.885 162.609 171.472C162.609 171.984 162.465 172.443 162.177 172.848C161.9 173.253 161.494 173.573 160.961 173.808C160.438 174.032 159.825 174.144 159.121 174.144ZM167.056 166.976V171.264C167.056 171.563 167.125 171.781 167.264 171.92C167.413 172.048 167.658 172.112 168 172.112H169.04V174H167.632C165.744 174 164.8 173.083 164.8 171.248V166.976H163.744V165.136H164.8V162.944H167.056V165.136H169.04V166.976H167.056ZM170.075 169.536C170.075 168.64 170.251 167.845 170.603 167.152C170.966 166.459 171.451 165.925 172.059 165.552C172.678 165.179 173.366 164.992 174.123 164.992C174.784 164.992 175.36 165.125 175.851 165.392C176.352 165.659 176.752 165.995 177.051 166.4V165.136H179.307V174H177.051V172.704C176.763 173.12 176.363 173.467 175.851 173.744C175.35 174.011 174.768 174.144 174.107 174.144C173.36 174.144 172.678 173.952 172.059 173.568C171.451 173.184 170.966 172.645 170.603 171.952C170.251 171.248 170.075 170.443 170.075 169.536ZM177.051 169.568C177.051 169.024 176.944 168.56 176.731 168.176C176.518 167.781 176.23 167.483 175.867 167.28C175.504 167.067 175.115 166.96 174.699 166.96C174.283 166.96 173.899 167.061 173.547 167.264C173.195 167.467 172.907 167.765 172.683 168.16C172.47 168.544 172.363 169.003 172.363 169.536C172.363 170.069 172.47 170.539 172.683 170.944C172.907 171.339 173.195 171.643 173.547 171.856C173.91 172.069 174.294 172.176 174.699 172.176C175.115 172.176 175.504 172.075 175.867 171.872C176.23 171.659 176.518 171.36 176.731 170.976C176.944 170.581 177.051 170.112 177.051 169.568ZM184.967 164.992C185.628 164.992 186.209 165.125 186.711 165.392C187.212 165.648 187.607 165.984 187.895 166.4V165.136H190.151V174.064C190.151 174.885 189.985 175.616 189.655 176.256C189.324 176.907 188.828 177.419 188.167 177.792C187.505 178.176 186.705 178.368 185.767 178.368C184.508 178.368 183.473 178.075 182.663 177.488C181.863 176.901 181.409 176.101 181.303 175.088H183.527C183.644 175.493 183.895 175.813 184.279 176.048C184.673 176.293 185.148 176.416 185.703 176.416C186.353 176.416 186.881 176.219 187.287 175.824C187.692 175.44 187.895 174.853 187.895 174.064V172.688C187.607 173.104 187.207 173.451 186.695 173.728C186.193 174.005 185.617 174.144 184.967 174.144C184.22 174.144 183.537 173.952 182.919 173.568C182.3 173.184 181.809 172.645 181.447 171.952C181.095 171.248 180.919 170.443 180.919 169.536C180.919 168.64 181.095 167.845 181.447 167.152C181.809 166.459 182.295 165.925 182.903 165.552C183.521 165.179 184.209 164.992 184.967 164.992ZM187.895 169.568C187.895 169.024 187.788 168.56 187.575 168.176C187.361 167.781 187.073 167.483 186.711 167.28C186.348 167.067 185.959 166.96 185.543 166.96C185.127 166.96 184.743 167.061 184.391 167.264C184.039 167.467 183.751 167.765 183.527 168.16C183.313 168.544 183.207 169.003 183.207 169.536C183.207 170.069 183.313 170.539 183.527 170.944C183.751 171.339 184.039 171.643 184.391 171.856C184.753 172.069 185.137 172.176 185.543 172.176C185.959 172.176 186.348 172.075 186.711 171.872C187.073 171.659 187.361 171.36 187.575 170.976C187.788 170.581 187.895 170.112 187.895 169.568ZM194.578 166.512C194.866 166.043 195.24 165.675 195.698 165.408C196.168 165.141 196.701 165.008 197.298 165.008V167.36H196.706C196.002 167.36 195.469 167.525 195.106 167.856C194.754 168.187 194.578 168.763 194.578 169.584V174H192.338V165.136H194.578V166.512ZM198.231 169.536C198.231 168.64 198.407 167.845 198.759 167.152C199.122 166.459 199.607 165.925 200.215 165.552C200.834 165.179 201.522 164.992 202.279 164.992C202.94 164.992 203.516 165.125 204.007 165.392C204.508 165.659 204.908 165.995 205.207 166.4V165.136H207.463V174H205.207V172.704C204.919 173.12 204.519 173.467 204.007 173.744C203.506 174.011 202.924 174.144 202.263 174.144C201.516 174.144 200.834 173.952 200.215 173.568C199.607 173.184 199.122 172.645 198.759 171.952C198.407 171.248 198.231 170.443 198.231 169.536ZM205.207 169.568C205.207 169.024 205.1 168.56 204.887 168.176C204.674 167.781 204.386 167.483 204.023 167.28C203.66 167.067 203.271 166.96 202.855 166.96C202.439 166.96 202.055 167.061 201.703 167.264C201.351 167.467 201.063 167.765 200.839 168.16C200.626 168.544 200.519 169.003 200.519 169.536C200.519 170.069 200.626 170.539 200.839 170.944C201.063 171.339 201.351 171.643 201.703 171.856C202.066 172.069 202.45 172.176 202.855 172.176C203.271 172.176 203.66 172.075 204.023 171.872C204.386 171.659 204.674 171.36 204.887 170.976C205.1 170.581 205.207 170.112 205.207 169.568ZM220.659 165.008C221.747 165.008 222.622 165.344 223.283 166.016C223.955 166.677 224.291 167.605 224.291 168.8V174H222.051V169.104C222.051 168.411 221.875 167.883 221.523 167.52C221.171 167.147 220.691 166.96 220.083 166.96C219.475 166.96 218.99 167.147 218.627 167.52C218.275 167.883 218.099 168.411 218.099 169.104V174H215.859V169.104C215.859 168.411 215.683 167.883 215.331 167.52C214.979 167.147 214.499 166.96 213.891 166.96C213.272 166.96 212.782 167.147 212.419 167.52C212.067 167.883 211.891 168.411 211.891 169.104V174H209.651V165.136H211.891V166.208C212.179 165.835 212.547 165.541 212.995 165.328C213.454 165.115 213.955 165.008 214.499 165.008C215.192 165.008 215.811 165.157 216.355 165.456C216.899 165.744 217.32 166.16 217.619 166.704C217.907 166.192 218.323 165.781 218.867 165.472C219.422 165.163 220.019 165.008 220.659 165.008ZM68.56 192.4C68.56 191.301 68.8053 190.32 69.296 189.456C69.7973 188.581 70.4747 187.904 71.328 187.424C72.192 186.933 73.1573 186.688 74.224 186.688C75.472 186.688 76.5653 187.008 77.504 187.648C78.4427 188.288 79.0987 189.173 79.472 190.304H76.896C76.64 189.771 76.2773 189.371 75.808 189.104C75.3493 188.837 74.816 188.704 74.208 188.704C73.5573 188.704 72.976 188.859 72.464 189.168C71.9627 189.467 71.568 189.893 71.28 190.448C71.0027 191.003 70.864 191.653 70.864 192.4C70.864 193.136 71.0027 193.787 71.28 194.352C71.568 194.907 71.9627 195.339 72.464 195.648C72.976 195.947 73.5573 196.096 74.208 196.096C74.816 196.096 75.3493 195.963 75.808 195.696C76.2773 195.419 76.64 195.013 76.896 194.48H79.472C79.0987 195.621 78.4427 196.512 77.504 197.152C76.576 197.781 75.4827 198.096 74.224 198.096C73.1573 198.096 72.192 197.856 71.328 197.376C70.4747 196.885 69.7973 196.208 69.296 195.344C68.8053 194.48 68.56 193.499 68.56 192.4ZM85.3213 198.144C84.4679 198.144 83.6999 197.957 83.0173 197.584C82.3346 197.2 81.7959 196.661 81.4013 195.968C81.0173 195.275 80.8253 194.475 80.8253 193.568C80.8253 192.661 81.0226 191.861 81.4173 191.168C81.8226 190.475 82.3719 189.941 83.0653 189.568C83.7586 189.184 84.5319 188.992 85.3853 188.992C86.2386 188.992 87.0119 189.184 87.7053 189.568C88.3986 189.941 88.9426 190.475 89.3373 191.168C89.7426 191.861 89.9453 192.661 89.9453 193.568C89.9453 194.475 89.7373 195.275 89.3212 195.968C88.9159 196.661 88.3613 197.2 87.6573 197.584C86.9639 197.957 86.1853 198.144 85.3213 198.144ZM85.3213 196.192C85.7266 196.192 86.1053 196.096 86.4573 195.904C86.8199 195.701 87.1079 195.403 87.3213 195.008C87.5346 194.613 87.6413 194.133 87.6413 193.568C87.6413 192.725 87.4173 192.08 86.9693 191.632C86.5319 191.173 85.9933 190.944 85.3533 190.944C84.7133 190.944 84.1746 191.173 83.7373 191.632C83.3106 192.08 83.0973 192.725 83.0973 193.568C83.0973 194.411 83.3053 195.061 83.7213 195.52C84.1479 195.968 84.6813 196.192 85.3213 196.192ZM102.596 189.008C103.684 189.008 104.559 189.344 105.22 190.016C105.892 190.677 106.228 191.605 106.228 192.8V198H103.988V193.104C103.988 192.411 103.812 191.883 103.46 191.52C103.108 191.147 102.628 190.96 102.02 190.96C101.412 190.96 100.927 191.147 100.564 191.52C100.212 191.883 100.036 192.411 100.036 193.104V198H97.7964V193.104C97.7964 192.411 97.6204 191.883 97.2684 191.52C96.9164 191.147 96.4364 190.96 95.8284 190.96C95.2097 190.96 94.719 191.147 94.3564 191.52C94.0044 191.883 93.8284 192.411 93.8284 193.104V198H91.5884V189.136H93.8284V190.208C94.1164 189.835 94.4844 189.541 94.9324 189.328C95.391 189.115 95.8924 189.008 96.4364 189.008C97.1297 189.008 97.7484 189.157 98.2924 189.456C98.8364 189.744 99.2577 190.16 99.5564 190.704C99.8444 190.192 100.26 189.781 100.804 189.472C101.359 189.163 101.956 189.008 102.596 189.008ZM116.722 189.136V198H114.466V196.88C114.178 197.264 113.799 197.568 113.33 197.792C112.871 198.005 112.37 198.112 111.826 198.112C111.133 198.112 110.519 197.968 109.986 197.68C109.453 197.381 109.031 196.949 108.722 196.384C108.423 195.808 108.274 195.125 108.274 194.336V189.136H110.514V194.016C110.514 194.72 110.69 195.264 111.042 195.648C111.394 196.021 111.874 196.208 112.482 196.208C113.101 196.208 113.586 196.021 113.938 195.648C114.29 195.264 114.466 194.72 114.466 194.016V189.136H116.722ZM123.844 189.008C124.9 189.008 125.753 189.344 126.404 190.016C127.055 190.677 127.38 191.605 127.38 192.8V198H125.14V193.104C125.14 192.4 124.964 191.861 124.612 191.488C124.26 191.104 123.78 190.912 123.172 190.912C122.553 190.912 122.063 191.104 121.7 191.488C121.348 191.861 121.172 192.4 121.172 193.104V198H118.932V189.136H121.172V190.24C121.471 189.856 121.849 189.557 122.308 189.344C122.777 189.12 123.289 189.008 123.844 189.008ZM130.646 188.08C130.252 188.08 129.921 187.957 129.654 187.712C129.398 187.456 129.27 187.141 129.27 186.768C129.27 186.395 129.398 186.085 129.654 185.84C129.921 185.584 130.252 185.456 130.646 185.456C131.041 185.456 131.366 185.584 131.622 185.84C131.889 186.085 132.022 186.395 132.022 186.768C132.022 187.141 131.889 187.456 131.622 187.712C131.366 187.957 131.041 188.08 130.646 188.08ZM131.75 189.136V198H129.51V189.136H131.75ZM136.571 190.976V195.264C136.571 195.563 136.641 195.781 136.779 195.92C136.929 196.048 137.174 196.112 137.515 196.112H138.555V198H137.147C135.259 198 134.315 197.083 134.315 195.248V190.976H133.259V189.136H134.315V186.944H136.571V189.136H138.555V190.976H136.571ZM148.647 189.136L143.159 202.192H140.775L142.695 197.776L139.143 189.136H141.655L143.943 195.328L146.263 189.136H148.647Z" fill="#2B2846"/>
<defs>
<filter id="filter0_d_140_3" x="0" y="0" width="347" height="360" filterUnits="userSpaceOnUse" color-interpolation-filters="sRGB">
<feFlood flood-opacity="0" result="BackgroundImageFix"/>
<feColorMatrix in="SourceAlpha" type="matrix" values="0 0 0 0 0 0 0 0 0 0 0 0 0 0 0 0 0 0 127 0" result="hardAlpha"/>
<feOffset dy="4"/>
<feGaussianBlur stdDeviation="15"/>
<feComposite in2="hardAlpha" operator="out"/>
<feColorMatrix type="matrix" values="0 0 0 0 0 0 0 0 0 0 0 0 0 0 0 0 0 0 0.25 0"/>
<feBlend mode="normal" in2="BackgroundImageFix" result="effect1_dropShadow_140_3"/>
<feBlend mode="normal" in="SourceGraphic" in2="effect1_dropShadow_140_3" result="shape"/>
</filter>
<filter id="filter1_d_140_3" x="94" y="246" width="27" height="27" filterUnits="userSpaceOnUse" color-interpolation-filters="sRGB">
<feFlood flood-opacity="0" result="BackgroundImageFix"/>
<feColorMatrix in="SourceAlpha" type="matrix" values="0 0 0 0 0 0 0 0 0 0 0 0 0 0 0 0 0 0 127 0" result="hardAlpha"/>
<feOffset dy="1"/>
<feGaussianBlur stdDeviation="5"/>
<feComposite in2="hardAlpha" operator="out"/>
<feColorMatrix type="matrix" values="0 0 0 0 0 0 0 0 0 0 0 0 0 0 0 0 0 0 0.25 0"/>
<feBlend mode="normal" in2="BackgroundImageFix" result="effect1_dropShadow_140_3"/>
<feBlend mode="normal" in="SourceGraphic" in2="effect1_dropShadow_140_3" result="shape"/>
</filter>
<filter id="filter2_d_140_3" x="85" y="246" width="27" height="27" filterUnits="userSpaceOnUse" color-interpolation-filters="sRGB">
<feFlood flood-opacity="0" result="BackgroundImageFix"/>
<feColorMatrix in="SourceAlpha" type="matrix" values="0 0 0 0 0 0 0 0 0 0 0 0 0 0 0 0 0 0 127 0" result="hardAlpha"/>
<feOffset dy="1"/>
<feGaussianBlur stdDeviation="5"/>
<feComposite in2="hardAlpha" operator="out"/>
<feColorMatrix type="matrix" values="0 0 0 0 0 0 0 0 0 0 0 0 0 0 0 0 0 0 0.25 0"/>
<feBlend mode="normal" in2="BackgroundImageFix" result="effect1_dropShadow_140_3"/>
<feBlend mode="normal" in="SourceGraphic" in2="effect1_dropShadow_140_3" result="shape"/>
</filter>
<filter id="filter3_d_140_3" x="58" y="246" width="27" height="27" filterUnits="userSpaceOnUse" color-interpolation-filters="sRGB">
<feFlood flood-opacity="0" result="BackgroundImageFix"/>
<feColorMatrix in="SourceAlpha" type="matrix" values="0 0 0 0 0 0 0 0 0 0 0 0 0 0 0 0 0 0 127 0" result="hardAlpha"/>
<feOffset dy="1"/>
<feGaussianBlur stdDeviation="5"/>
<feComposite in2="hardAlpha" operator="out"/>
<feColorMatrix type="matrix" values="0 0 0 0 0 0 0 0 0 0 0 0 0 0 0 0 0 0 0.25 0"/>
<feBlend mode="normal" in2="BackgroundImageFix" result="effect1_dropShadow_140_3"/>
<feBlend mode="normal" in="SourceGraphic" in2="effect1_dropShadow_140_3" result="shape"/>
</filter>
<filter id="filter4_d_140_3" x="76" y="246" width="27" height="27" filterUnits="userSpaceOnUse" color-interpolation-filters="sRGB">
<feFlood flood-opacity="0" result="BackgroundImageFix"/>
<feColorMatrix in="SourceAlpha" type="matrix" values="0 0 0 0 0 0 0 0 0 0 0 0 0 0 0 0 0 0 127 0" result="hardAlpha"/>
<feOffset dy="1"/>
<feGaussianBlur stdDeviation="5"/>
<feComposite in2="hardAlpha" operator="out"/>
<feColorMatrix type="matrix" values="0 0 0 0 0 0 0 0 0 0 0 0 0 0 0 0 0 0 0.25 0"/>
<feBlend mode="normal" in2="BackgroundImageFix" result="effect1_dropShadow_140_3"/>
<feBlend mode="normal" in="SourceGraphic" in2="effect1_dropShadow_140_3" result="shape"/>
</filter>
<filter id="filter5_d_140_3" x="67" y="246" width="27" height="27" filterUnits="userSpaceOnUse" color-interpolation-filters="sRGB">
<feFlood flood-opacity="0" result="BackgroundImageFix"/>
<feColorMatrix in="SourceAlpha" type="matrix" values="0 0 0 0 0 0 0 0 0 0 0 0 0 0 0 0 0 0 127 0" result="hardAlpha"/>
<feOffset dy="1"/>
<feGaussianBlur stdDeviation="5"/>
<feComposite in2="hardAlpha" operator="out"/>
<feColorMatrix type="matrix" values="0 0 0 0 0 0 0 0 0 0 0 0 0 0 0 0 0 0 0.25 0"/>
<feBlend mode="normal" in2="BackgroundImageFix" result="effect1_dropShadow_140_3"/>
<feBlend mode="normal" in="SourceGraphic" in2="effect1_dropShadow_140_3" result="shape"/>
</filter>
</defs>
</svg>
