<svg width="22" height="22" viewBox="0 0 22 22" fill="none" xmlns="http://www.w3.org/2000/svg">
<circle cx="11" cy="11" r="11" fill="#F4E4D4"/>
<path d="M11 5C7.6862 5 5 7.70011 5 11.0311C5 14.0544 7.2158 16.5513 10.103 16.9873V12.6293H8.6186V11.0437H10.103V9.98889C10.103 8.2423 10.9496 7.47575 12.3938 7.47575C13.0856 7.47575 13.451 7.52701 13.6244 7.55054V8.93406H12.6392C12.026 8.93406 11.8118 9.51847 11.8118 10.1771V11.0437H13.6088L13.3652 12.6293H11.8124V17C14.741 16.6013 17 14.084 17 11.0311C17 7.70011 14.3138 5 11 5Z" fill="#BD6F33"/>
</svg>
