<svg width="22" height="22" viewBox="0 0 22 22" fill="none" xmlns="http://www.w3.org/2000/svg">
<circle cx="11" cy="11" r="11" fill="#F4E4D4"/>
<path d="M8.33333 5C6.49533 5 5 6.49533 5 8.33333V13.6667C5 15.5047 6.49533 17 8.33333 17H13.6667C15.5047 17 17 15.5047 17 13.6667V8.33333C17 6.49533 15.5047 5 13.6667 5H8.33333ZM8.33333 6.33333H13.6667C14.7693 6.33333 15.6667 7.23067 15.6667 8.33333V13.6667C15.6667 14.7693 14.7693 15.6667 13.6667 15.6667H8.33333C7.23067 15.6667 6.33333 14.7693 6.33333 13.6667V8.33333C6.33333 7.23067 7.23067 6.33333 8.33333 6.33333ZM14.3333 7C14.1565 7 13.987 7.07024 13.8619 7.19526C13.7369 7.32029 13.6667 7.48986 13.6667 7.66667C13.6667 7.84348 13.7369 8.01305 13.8619 8.13807C13.987 8.2631 14.1565 8.33333 14.3333 8.33333C14.5101 8.33333 14.6797 8.2631 14.8047 8.13807C14.9298 8.01305 15 7.84348 15 7.66667C15 7.48986 14.9298 7.32029 14.8047 7.19526C14.6797 7.07024 14.5101 7 14.3333 7ZM11 7.66667C9.162 7.66667 7.66667 9.162 7.66667 11C7.66667 12.838 9.162 14.3333 11 14.3333C12.838 14.3333 14.3333 12.838 14.3333 11C14.3333 9.162 12.838 7.66667 11 7.66667ZM11 9C12.1027 9 13 9.89733 13 11C13 12.1027 12.1027 13 11 13C9.89733 13 9 12.1027 9 11C9 9.89733 9.89733 9 11 9Z" fill="#BD6F33"/>
</svg>
