<svg width="18" height="19" viewBox="0 0 18 19" fill="none" xmlns="http://www.w3.org/2000/svg">
<path d="M5 0C2.243 0 0 2.33856 0 5.21301V13.5538C0 16.4283 2.243 18.7668 5 18.7668H13C15.757 18.7668 18 16.4283 18 13.5538V5.21301C18 2.33856 15.757 0 13 0H5ZM5 2.08521H13C14.654 2.08521 16 3.48855 16 5.21301V13.5538C16 15.2783 14.654 16.6816 13 16.6816H5C3.346 16.6816 2 15.2783 2 13.5538V5.21301C2 3.48855 3.346 2.08521 5 2.08521ZM14 3.12781C13.7348 3.12781 13.4804 3.23765 13.2929 3.43318C13.1054 3.62871 13 3.89389 13 4.17041C13 4.44693 13.1054 4.71212 13.2929 4.90764C13.4804 5.10317 13.7348 5.21301 14 5.21301C14.2652 5.21301 14.5196 5.10317 14.7071 4.90764C14.8946 4.71212 15 4.44693 15 4.17041C15 3.89389 14.8946 3.62871 14.7071 3.43318C14.5196 3.23765 14.2652 3.12781 14 3.12781ZM9 4.17041C6.243 4.17041 4 6.50897 4 9.38342C4 12.2579 6.243 14.5964 9 14.5964C11.757 14.5964 14 12.2579 14 9.38342C14 6.50897 11.757 4.17041 9 4.17041ZM9 6.25562C10.654 6.25562 12 7.65896 12 9.38342C12 11.1079 10.654 12.5112 9 12.5112C7.346 12.5112 6 11.1079 6 9.38342C6 7.65896 7.346 6.25562 9 6.25562Z" fill="#5E5F5C"/>
</svg>
