<svg width="162" height="507" viewBox="0 0 162 507" fill="none" xmlns="http://www.w3.org/2000/svg">
<mask id="mask0_28_32" style="mask-type:alpha" maskUnits="userSpaceOnUse" x="15" y="17" width="555" height="473">
<ellipse cx="292.844" cy="253.572" rx="277.257" ry="235.359" transform="rotate(-3.84633 292.844 253.572)" fill="#5B5495"/>
</mask>
<g mask="url(#mask0_28_32)">
<line y1="-3.5" x2="1224.61" y2="-3.5" transform="matrix(-0.85286 0.522139 -0.653201 -0.757184 717.182 -108.263)" stroke="#5B5495" stroke-width="7"/>
<line y1="-3.5" x2="1224.61" y2="-3.5" transform="matrix(-0.85286 0.522139 -0.653201 -0.757184 1011.51 93.3475)" stroke="#5B5495" stroke-width="7"/>
<line y1="-3.5" x2="1224.61" y2="-3.5" transform="matrix(-0.85286 0.522139 -0.653201 -0.757184 569.356 -197.35)" stroke="#5B5495" stroke-width="7"/>
<line y1="-3.5" x2="1224.61" y2="-3.5" transform="matrix(-0.85286 0.522139 -0.653201 -0.757184 937.724 115.215)" stroke="#5B5495" stroke-width="7"/>
<line y1="-3.5" x2="1224.61" y2="-3.5" transform="matrix(-0.85286 0.522139 -0.653201 -0.757184 903.405 107.057)" stroke="#5B5495" stroke-width="7"/>
<line y1="-3.5" x2="1224.61" y2="-3.5" transform="matrix(-0.85286 0.522139 -0.653201 -0.757184 880.603 83.632)" stroke="#5B5495" stroke-width="7"/>
<line y1="-3.5" x2="1224.61" y2="-3.5" transform="matrix(-0.85286 0.522139 -0.653201 -0.757184 878.555 53.1763)" stroke="#5B5495" stroke-width="7"/>
<line y1="-3.5" x2="1224.61" y2="-3.5" transform="matrix(-0.85286 0.522139 -0.653201 -0.757184 881.149 19.9933)" stroke="#5B5495" stroke-width="7"/>
<line y1="-3.5" x2="1224.61" y2="-3.5" transform="matrix(-0.85286 0.522139 -0.653201 -0.757184 606.817 -199.868)" stroke="#5B5495" stroke-width="7"/>
<line y1="-3.5" x2="1224.61" y2="-3.5" transform="matrix(-0.85286 0.522139 -0.653201 -0.757184 600.22 -168.832)" stroke="#5B5495" stroke-width="7"/>
<line y1="-3.5" x2="1224.61" y2="-3.5" transform="matrix(-0.85286 0.522139 -0.653201 -0.757184 879.209 -8.85938)" stroke="#5B5495" stroke-width="7"/>
<line y1="-3.5" x2="1224.61" y2="-3.5" transform="matrix(-0.85286 0.522139 -0.653201 -0.757184 821.739 -2.5802)" stroke="#5B5495" stroke-width="7"/>
<line y1="-3.5" x2="1224.61" y2="-3.5" transform="matrix(-0.85286 0.522139 -0.653201 -0.757184 621.307 -156.563)" stroke="#5B5495" stroke-width="7"/>
<line y1="-3.5" x2="1224.61" y2="-3.5" transform="matrix(-0.85286 0.522139 -0.653201 -0.757184 817.025 -29.6362)" stroke="#5B5495" stroke-width="7"/>
<line y1="-3.5" x2="1224.61" y2="-3.5" transform="matrix(-0.85286 0.522139 -0.653201 -0.757184 799.349 -48.5751)" stroke="#5B5495" stroke-width="7"/>
<line y1="-3.5" x2="1224.61" y2="-3.5" transform="matrix(-0.85286 0.522139 -0.653201 -0.757184 775.165 -63.8558)" stroke="#5B5495" stroke-width="7"/>
<line y1="-3.5" x2="1224.61" y2="-3.5" transform="matrix(-0.85286 0.522139 -0.653201 -0.757184 663.678 -157.801)" stroke="#5B5495" stroke-width="7"/>
<line y1="-3.5" x2="1224.61" y2="-3.5" transform="matrix(-0.85286 0.522139 -0.653201 -0.757184 669.989 -135.683)" stroke="#5B5495" stroke-width="7"/>
<line y1="-3.5" x2="1224.61" y2="-3.5" transform="matrix(-0.85286 0.522139 -0.653201 -0.757184 700.52 -126.465)" stroke="#5B5495" stroke-width="7"/>
<line y1="-3.5" x2="1224.61" y2="-3.5" transform="matrix(-0.85286 0.522139 -0.653201 -0.757184 750.343 -74.2634)" stroke="#5B5495" stroke-width="7"/>
<line y1="-3.5" x2="1224.61" y2="-3.5" transform="matrix(-0.85286 0.522139 -0.653201 -0.757184 733.735 -91.6638)" stroke="#5B5495" stroke-width="7"/>
</g>
</svg>
