<svg width="745" height="746" viewBox="0 0 745 746" fill="none" xmlns="http://www.w3.org/2000/svg">
<mask id="mask0_28_83" style="mask-type:alpha" maskUnits="userSpaceOnUse" x="123" y="202" width="450" height="432">
<path d="M572.238 202.195L421.927 633.128L123.038 282.916L572.238 202.195Z" fill="#5B5495"/>
</mask>
<g mask="url(#mask0_28_83)">
<line y1="-2" x2="846.856" y2="-2" transform="matrix(-0.762961 0.646445 -0.646163 -0.763199 576.234 -299.559)" stroke="#5B5495" stroke-width="4"/>
<line y1="-2" x2="846.856" y2="-2" transform="matrix(-0.762961 0.646445 -0.646163 -0.763199 614.346 -271.801)" stroke="#5B5495" stroke-width="4"/>
<line y1="-2" x2="846.856" y2="-2" transform="matrix(-0.762961 0.646445 -0.646163 -0.763199 581.073 -273.613)" stroke="#5B5495" stroke-width="4"/>
<line y1="-2" x2="846.856" y2="-2" transform="matrix(-0.762961 0.646445 -0.646163 -0.763199 576.234 -299.559)" stroke="#5B5495" stroke-width="4"/>
<line y1="-2" x2="846.856" y2="-2" transform="matrix(-0.762961 0.646445 -0.646163 -0.763199 614.346 -271.801)" stroke="#5B5495" stroke-width="4"/>
<line y1="-2" x2="846.856" y2="-2" transform="matrix(-0.762961 0.646445 -0.646163 -0.763199 581.073 -273.613)" stroke="#5B5495" stroke-width="4"/>
<line y1="-2" x2="846.856" y2="-2" transform="matrix(-0.762961 0.646445 -0.646163 -0.763199 710.422 -142.33)" stroke="#5B5495" stroke-width="4"/>
<line y1="-2" x2="846.856" y2="-2" transform="matrix(-0.762961 0.646445 -0.646163 -0.763199 748.534 -114.572)" stroke="#5B5495" stroke-width="4"/>
<line y1="-2" x2="846.856" y2="-2" transform="matrix(-0.762961 0.646445 -0.646163 -0.763199 715.26 -116.384)" stroke="#5B5495" stroke-width="4"/>
<line y1="-2" x2="846.856" y2="-2" transform="matrix(-0.762961 0.646445 -0.646163 -0.763199 657.327 -187.645)" stroke="#5B5495" stroke-width="4"/>
<line y1="-2" x2="846.856" y2="-2" transform="matrix(-0.762961 0.646445 -0.646163 -0.763199 695.439 -159.886)" stroke="#5B5495" stroke-width="4"/>
<line y1="-2" x2="846.856" y2="-2" transform="matrix(-0.762961 0.646445 -0.646163 -0.763199 662.165 -161.698)" stroke="#5B5495" stroke-width="4"/>
<line y1="-2" x2="846.856" y2="-2" transform="matrix(-0.762961 0.646445 -0.646163 -0.763199 620.92 -247.201)" stroke="#5B5495" stroke-width="4"/>
<line y1="-2" x2="846.856" y2="-2" transform="matrix(-0.762961 0.646445 -0.646163 -0.763199 659.031 -219.443)" stroke="#5B5495" stroke-width="4"/>
<line y1="-2" x2="846.856" y2="-2" transform="matrix(-0.762961 0.646445 -0.646163 -0.763199 625.758 -221.255)" stroke="#5B5495" stroke-width="4"/>
<line y1="-2" x2="846.856" y2="-2" transform="matrix(-0.762961 0.646445 -0.646163 -0.763199 896.001 92.0129)" stroke="#5B5495" stroke-width="4"/>
<line y1="-2" x2="846.856" y2="-2" transform="matrix(-0.762961 0.646445 -0.646163 -0.763199 934.113 119.771)" stroke="#5B5495" stroke-width="4"/>
<line y1="-2" x2="846.856" y2="-2" transform="matrix(-0.762961 0.646445 -0.646163 -0.763199 900.839 117.959)" stroke="#5B5495" stroke-width="4"/>
<line y1="-2" x2="846.856" y2="-2" transform="matrix(-0.762961 0.646445 -0.646163 -0.763199 896.001 92.0129)" stroke="#5B5495" stroke-width="4"/>
<line y1="-2" x2="846.856" y2="-2" transform="matrix(-0.762961 0.646445 -0.646163 -0.763199 934.113 119.771)" stroke="#5B5495" stroke-width="4"/>
<line y1="-2" x2="846.856" y2="-2" transform="matrix(-0.762961 0.646445 -0.646163 -0.763199 900.839 117.959)" stroke="#5B5495" stroke-width="4"/>
<line y1="-2" x2="846.856" y2="-2" transform="matrix(-0.762961 0.646445 -0.646163 -0.763199 1030.19 249.242)" stroke="#5B5495" stroke-width="4"/>
<line y1="-2" x2="846.856" y2="-2" transform="matrix(-0.762961 0.646445 -0.646163 -0.763199 1068.3 277.001)" stroke="#5B5495" stroke-width="4"/>
<line y1="-2" x2="846.856" y2="-2" transform="matrix(-0.762961 0.646445 -0.646163 -0.763199 1035.03 275.189)" stroke="#5B5495" stroke-width="4"/>
<line y1="-2" x2="846.856" y2="-2" transform="matrix(-0.762961 0.646445 -0.646163 -0.763199 977.094 203.928)" stroke="#5B5495" stroke-width="4"/>
<line y1="-2" x2="846.856" y2="-2" transform="matrix(-0.762961 0.646445 -0.646163 -0.763199 1015.21 231.686)" stroke="#5B5495" stroke-width="4"/>
<line y1="-2" x2="846.856" y2="-2" transform="matrix(-0.762961 0.646445 -0.646163 -0.763199 981.932 229.874)" stroke="#5B5495" stroke-width="4"/>
<line y1="-2" x2="846.856" y2="-2" transform="matrix(-0.762961 0.646445 -0.646163 -0.763199 940.686 144.371)" stroke="#5B5495" stroke-width="4"/>
<line y1="-2" x2="846.856" y2="-2" transform="matrix(-0.762961 0.646445 -0.646163 -0.763199 978.798 172.129)" stroke="#5B5495" stroke-width="4"/>
<line y1="-2" x2="846.856" y2="-2" transform="matrix(-0.762961 0.646445 -0.646163 -0.763199 945.525 170.317)" stroke="#5B5495" stroke-width="4"/>
<line y1="-2" x2="846.856" y2="-2" transform="matrix(-0.762961 0.646445 -0.646163 -0.763199 716.996 -117.73)" stroke="#5B5495" stroke-width="4"/>
<line y1="-2" x2="846.856" y2="-2" transform="matrix(-0.762961 0.646445 -0.646163 -0.763199 755.107 -89.9719)" stroke="#5B5495" stroke-width="4"/>
<line y1="-2" x2="846.856" y2="-2" transform="matrix(-0.762961 0.646445 -0.646163 -0.763199 721.834 -91.7839)" stroke="#5B5495" stroke-width="4"/>
<line y1="-2" x2="846.856" y2="-2" transform="matrix(-0.762961 0.646445 -0.646163 -0.763199 716.996 -117.73)" stroke="#5B5495" stroke-width="4"/>
<line y1="-2" x2="846.856" y2="-2" transform="matrix(-0.762961 0.646445 -0.646163 -0.763199 755.107 -89.9719)" stroke="#5B5495" stroke-width="4"/>
<line y1="-2" x2="846.856" y2="-2" transform="matrix(-0.762961 0.646445 -0.646163 -0.763199 721.834 -91.7839)" stroke="#5B5495" stroke-width="4"/>
<line y1="-2" x2="846.856" y2="-2" transform="matrix(-0.762961 0.646445 -0.646163 -0.763199 851.183 39.4994)" stroke="#5B5495" stroke-width="4"/>
<line y1="-2" x2="846.856" y2="-2" transform="matrix(-0.762961 0.646445 -0.646163 -0.763199 889.295 67.2578)" stroke="#5B5495" stroke-width="4"/>
<line y1="-2" x2="846.856" y2="-2" transform="matrix(-0.762961 0.646445 -0.646163 -0.763199 856.022 65.4457)" stroke="#5B5495" stroke-width="4"/>
<line y1="-2" x2="846.856" y2="-2" transform="matrix(-0.762961 0.646445 -0.646163 -0.763199 798.088 -5.81531)" stroke="#5B5495" stroke-width="4"/>
<line y1="-2" x2="846.856" y2="-2" transform="matrix(-0.762961 0.646445 -0.646163 -0.763199 836.2 21.9431)" stroke="#5B5495" stroke-width="4"/>
<line y1="-2" x2="846.856" y2="-2" transform="matrix(-0.762961 0.646445 -0.646163 -0.763199 802.926 20.1312)" stroke="#5B5495" stroke-width="4"/>
<line y1="-2" x2="846.856" y2="-2" transform="matrix(-0.762961 0.646445 -0.646163 -0.763199 761.681 -65.3721)" stroke="#5B5495" stroke-width="4"/>
<line y1="-2" x2="846.856" y2="-2" transform="matrix(-0.762961 0.646445 -0.646163 -0.763199 799.793 -37.6136)" stroke="#5B5495" stroke-width="4"/>
<line y1="-2" x2="846.856" y2="-2" transform="matrix(-0.762961 0.646445 -0.646163 -0.763199 766.519 -39.4259)" stroke="#5B5495" stroke-width="4"/>
</g>
</svg>
