<svg width="118" height="20" viewBox="0 0 118 20" fill="none" xmlns="http://www.w3.org/2000/svg">
<path d="M10.5 3.74795L11.9027 6.95975L12.2637 7.7864L13.1631 7.85507L16.6301 8.11978L14.0455 10.2283L13.3072 10.8307L13.5387 11.755L14.3529 15.006L11.2542 13.2034L10.5 12.7647L9.74576 13.2034L6.64707 15.006L7.46131 11.755L7.69283 10.8307L6.95447 10.2283L4.36992 8.11978L7.83691 7.85507L8.73633 7.7864L9.09734 6.95975L10.5 3.74795Z" fill="#F1C644" stroke="#F1C644" stroke-width="3"/>
<path d="M34.5 3.74795L35.9027 6.95975L36.2637 7.7864L37.1631 7.85507L40.6301 8.11978L38.0455 10.2283L37.3072 10.8307L37.5387 11.755L38.3529 15.006L35.2542 13.2034L34.5 12.7647L33.7458 13.2034L30.6471 15.006L31.4613 11.755L31.6928 10.8307L30.9545 10.2283L28.3699 8.11978L31.8369 7.85507L32.7363 7.7864L33.0973 6.95975L34.5 3.74795Z" fill="#F1C644" stroke="#F1C644" stroke-width="3"/>
<path d="M59 3.60542L60.5455 6.98348L60.9149 7.79091L61.8005 7.85546L65.4632 8.12239L62.7861 10.2071L62.0059 10.8147L62.2568 11.7713L63.1234 15.0739L59.7282 13.1886L59 12.7843L58.2718 13.1886L54.8766 15.0739L55.7432 11.7713L55.9941 10.8147L55.2139 10.2071L52.5368 8.12239L56.1995 7.85546L57.0851 7.79091L57.4545 6.98348L59 3.60542Z" fill="#F1C644" stroke="#F1C644" stroke-width="3"/>
<path d="M83.5 3.74795L84.9027 6.95975L85.2637 7.7864L86.1631 7.85507L89.6301 8.11978L87.0455 10.2283L86.3072 10.8307L86.5387 11.755L87.3529 15.006L84.2542 13.2034L83.5 12.7647L82.7458 13.2034L79.6471 15.006L80.4613 11.755L80.6928 10.8307L79.9545 10.2283L77.3699 8.11978L80.8369 7.85507L81.7363 7.7864L82.0973 6.95975L83.5 3.74795Z" fill="#F1C644" stroke="#F1C644" stroke-width="3"/>
<path d="M107.5 3.74795L108.903 6.95975L109.264 7.7864L110.163 7.85507L113.63 8.11978L111.046 10.2283L110.307 10.8307L110.539 11.755L111.353 15.006L108.254 13.2034L107.5 12.7647L106.746 13.2034L103.647 15.006L104.461 11.755L104.693 10.8307L103.954 10.2283L101.37 8.11978L104.837 7.85507L105.736 7.7864L106.097 6.95975L107.5 3.74795Z" fill="#F1C644" stroke="#F1C644" stroke-width="3"/>
</svg>
