<svg width="22" height="22" viewBox="0 0 22 22" fill="none" xmlns="http://www.w3.org/2000/svg">
<circle cx="11" cy="11" r="11" fill="#F4E4D4"/>
<path d="M16.7492 6.6395C16.6112 5.9945 16.2044 5.486 15.6884 5.3135C14.7524 5 11 5 11 5C11 5 7.2476 5 6.3116 5.3135C5.7956 5.486 5.3888 5.9945 5.2508 6.6395C5 7.8095 5 11 5 11C5 11 5 14.1905 5.2508 15.3605C5.3888 16.0055 5.7956 16.514 6.3116 16.6865C7.2476 17 11 17 11 17C11 17 14.7524 17 15.6884 16.6865C16.205 16.514 16.6112 16.0055 16.7492 15.3605C17 14.1905 17 11 17 11C17 11 17 7.8095 16.7492 6.6395ZM9.8 13.598V8.402L13.4 11L9.8 13.598Z" fill="#BD6F33"/>
</svg>
